<?xml version="1.0" encoding="UTF-8" standalone="no"?>
<!DOCTYPE svg PUBLIC "-//W3C//DTD SVG 1.1//EN"
 "http://www.w3.org/Graphics/SVG/1.1/DTD/svg11.dtd">
<!-- Generated by graphviz version 2.38.0 (20140413.2041)
 -->
<!-- Title: G Pages: 1 -->
<svg width="390pt" height="273pt"
 viewBox="0.00 0.00 389.86 273.00" xmlns="http://www.w3.org/2000/svg" xmlns:xlink="http://www.w3.org/1999/xlink">
<g id="graph0" class="graph" transform="scale(1 1) rotate(0) translate(4 269)">
<title>G</title>
<polygon fill="white" stroke="none" points="-4,4 -4,-269 385.861,-269 385.861,4 -4,4"/>
<g id="clust1" class="cluster"><title>cluster_Global</title>
<path fill="none" stroke="gray" d="M156.834,-8C156.834,-8 361.861,-8 361.861,-8 367.861,-8 373.861,-14 373.861,-20 373.861,-20 373.861,-245 373.861,-245 373.861,-251 367.861,-257 361.861,-257 361.861,-257 156.834,-257 156.834,-257 150.834,-257 144.834,-251 144.834,-245 144.834,-245 144.834,-20 144.834,-20 144.834,-14 150.834,-8 156.834,-8"/>
<text text-anchor="middle" x="259.347" y="-244.2" font-family="Times,serif" font-size="11.00" fill="gray">Global</text>
</g>
<g id="clust2" class="cluster"><title>cluster_\Battis</title>
<path fill="none" stroke="gray" d="M164.834,-16C164.834,-16 353.861,-16 353.861,-16 359.861,-16 365.861,-22 365.861,-28 365.861,-28 365.861,-218 365.861,-218 365.861,-224 359.861,-230 353.861,-230 353.861,-230 164.834,-230 164.834,-230 158.834,-230 152.834,-224 152.834,-218 152.834,-218 152.834,-28 152.834,-28 152.834,-22 158.834,-16 164.834,-16"/>
<text text-anchor="middle" x="259.347" y="-217.2" font-family="Times,serif" font-size="11.00" fill="gray">Battis</text>
</g>
<g id="clust3" class="cluster"><title>cluster_\Battis\BootstrapSmarty</title>
<path fill="none" stroke="gray" d="M172.834,-24C172.834,-24 345.861,-24 345.861,-24 351.861,-24 357.861,-30 357.861,-36 357.861,-36 357.861,-191 357.861,-191 357.861,-197 351.861,-203 345.861,-203 345.861,-203 172.834,-203 172.834,-203 166.834,-203 160.834,-197 160.834,-191 160.834,-191 160.834,-36 160.834,-36 160.834,-30 166.834,-24 172.834,-24"/>
<text text-anchor="middle" x="259.347" y="-190.2" font-family="Times,serif" font-size="11.00" fill="gray">BootstrapSmarty</text>
</g>
<!-- \\Battis\\BootstrapSmarty\\BootstrapSmarty_Exception -->
<g id="node1" class="node"><title>\\Battis\\BootstrapSmarty\\BootstrapSmarty_Exception</title>
<polygon fill="none" stroke="black" points="349.874,-176 168.821,-176 168.821,-140 349.874,-140 349.874,-176"/>
<text text-anchor="middle" x="259.347" y="-154.7" font-family="Courier,monospace" font-size="11.00">BootstrapSmarty_Exception</text>
</g>
<!-- \\Exception -->
<g id="node4" class="node"><title>\\Exception</title>
<ellipse fill="none" stroke="black" cx="48.417" cy="-158" rx="48.3341" ry="18"/>
<text text-anchor="middle" x="48.417" y="-153.8" font-family="Times,serif" font-size="14.00" fill="gray">\Exception</text>
</g>
<!-- \\Battis\\BootstrapSmarty\\BootstrapSmarty_Exception&#45;&gt;\\Exception -->
<g id="edge1" class="edge"><title>\\Battis\\BootstrapSmarty\\BootstrapSmarty_Exception&#45;&gt;\\Exception</title>
<path fill="none" stroke="black" d="M168.833,-158C147.897,-158 126.143,-158 107.029,-158"/>
<polygon fill="none" stroke="black" points="106.999,-154.5 96.9986,-158 106.999,-161.5 106.999,-154.5"/>
</g>
<!-- \\Battis\\BootstrapSmarty\\BootstrapSmarty -->
<g id="node2" class="node"><title>\\Battis\\BootstrapSmarty\\BootstrapSmarty</title>
<polygon fill="none" stroke="black" points="316.864,-122 201.831,-122 201.831,-86 316.864,-86 316.864,-122"/>
<text text-anchor="middle" x="259.347" y="-100.7" font-family="Courier,monospace" font-size="11.00">BootstrapSmarty</text>
</g>
<!-- \\Smarty -->
<g id="node5" class="node"><title>\\Smarty</title>
<ellipse fill="none" stroke="black" cx="48.417" cy="-104" rx="38.2197" ry="18"/>
<text text-anchor="middle" x="48.417" y="-99.8" font-family="Times,serif" font-size="14.00" fill="gray">\Smarty</text>
</g>
<!-- \\Battis\\BootstrapSmarty\\BootstrapSmarty&#45;&gt;\\Smarty -->
<g id="edge2" class="edge"><title>\\Battis\\BootstrapSmarty\\BootstrapSmarty&#45;&gt;\\Smarty</title>
<path fill="none" stroke="black" d="M201.808,-104C168.909,-104 127.914,-104 96.7323,-104"/>
<polygon fill="none" stroke="black" points="96.5599,-100.5 86.5598,-104 96.5598,-107.5 96.5599,-100.5"/>
</g>
<!-- \\Battis\\BootstrapSmarty\\NotificationMessage -->
<g id="node3" class="node"><title>\\Battis\\BootstrapSmarty\\NotificationMessage</title>
<polygon fill="none" stroke="black" points="330.268,-68 188.426,-68 188.426,-32 330.268,-32 330.268,-68"/>
<text text-anchor="middle" x="259.347" y="-46.7" font-family="Courier,monospace" font-size="11.00">NotificationMessage</text>
</g>
</g>
</svg>
