<?xml version="1.0" encoding="UTF-8" standalone="no"?>
<!DOCTYPE svg PUBLIC "-//W3C//DTD SVG 1.1//EN"
 "http://www.w3.org/Graphics/SVG/1.1/DTD/svg11.dtd">
<!-- Generated by graphviz version 2.38.0 (20140413.2041)
 -->
<!-- Title: G Pages: 1 -->
<svg width="561pt" height="273pt"
 viewBox="0.00 0.00 560.83 273.00" xmlns="http://www.w3.org/2000/svg" xmlns:xlink="http://www.w3.org/1999/xlink">
<g id="graph0" class="graph" transform="scale(1 1) rotate(0) translate(4 269)">
<title>G</title>
<polygon fill="white" stroke="none" points="-4,4 -4,-269 556.832,-269 556.832,4 -4,4"/>
<g id="clust1" class="cluster"><title>cluster_Global</title>
<path fill="none" stroke="gray" d="M327.805,-8C327.805,-8 532.832,-8 532.832,-8 538.832,-8 544.832,-14 544.832,-20 544.832,-20 544.832,-245 544.832,-245 544.832,-251 538.832,-257 532.832,-257 532.832,-257 327.805,-257 327.805,-257 321.805,-257 315.805,-251 315.805,-245 315.805,-245 315.805,-20 315.805,-20 315.805,-14 321.805,-8 327.805,-8"/>
<text text-anchor="middle" x="430.318" y="-244.2" font-family="Times,serif" font-size="11.00" fill="gray">Global</text>
</g>
<g id="clust2" class="cluster"><title>cluster_\Battis</title>
<path fill="none" stroke="gray" d="M335.805,-16C335.805,-16 524.832,-16 524.832,-16 530.832,-16 536.832,-22 536.832,-28 536.832,-28 536.832,-218 536.832,-218 536.832,-224 530.832,-230 524.832,-230 524.832,-230 335.805,-230 335.805,-230 329.805,-230 323.805,-224 323.805,-218 323.805,-218 323.805,-28 323.805,-28 323.805,-22 329.805,-16 335.805,-16"/>
<text text-anchor="middle" x="430.318" y="-217.2" font-family="Times,serif" font-size="11.00" fill="gray">Battis</text>
</g>
<g id="clust3" class="cluster"><title>cluster_\Battis\BootstrapSmarty</title>
<path fill="none" stroke="gray" d="M343.805,-24C343.805,-24 516.832,-24 516.832,-24 522.832,-24 528.832,-30 528.832,-36 528.832,-36 528.832,-191 528.832,-191 528.832,-197 522.832,-203 516.832,-203 516.832,-203 343.805,-203 343.805,-203 337.805,-203 331.805,-197 331.805,-191 331.805,-191 331.805,-36 331.805,-36 331.805,-30 337.805,-24 343.805,-24"/>
<text text-anchor="middle" x="430.318" y="-190.2" font-family="Times,serif" font-size="11.00" fill="gray">BootstrapSmarty</text>
</g>
<!-- \\Battis\\BootstrapSmarty\\BootstrapSmarty -->
<g id="node1" class="node"><title>\\Battis\\BootstrapSmarty\\BootstrapSmarty</title>
<polygon fill="none" stroke="black" points="487.834,-176 372.802,-176 372.802,-140 487.834,-140 487.834,-176"/>
<text text-anchor="middle" x="430.318" y="-154.7" font-family="Courier,monospace" font-size="11.00">BootstrapSmarty</text>
</g>
<!-- \\Battis\\BootstrapSmarty\\Smarty -->
<g id="node4" class="node"><title>\\Battis\\BootstrapSmarty\\Smarty</title>
<ellipse fill="none" stroke="black" cx="133.902" cy="-158" rx="123.69" ry="18"/>
<text text-anchor="middle" x="133.902" y="-153.8" font-family="Times,serif" font-size="14.00" fill="gray">\Battis\BootstrapSmarty\Smarty</text>
</g>
<!-- \\Battis\\BootstrapSmarty\\BootstrapSmarty&#45;&gt;\\Battis\\BootstrapSmarty\\Smarty -->
<g id="edge1" class="edge"><title>\\Battis\\BootstrapSmarty\\BootstrapSmarty&#45;&gt;\\Battis\\BootstrapSmarty\\Smarty</title>
<path fill="none" stroke="black" d="M372.552,-158C342.692,-158 304.726,-158 267.949,-158"/>
<polygon fill="none" stroke="black" points="267.616,-154.5 257.616,-158 267.616,-161.5 267.616,-154.5"/>
</g>
<!-- \\Battis\\BootstrapSmarty\\BootstrapSmarty_Exception -->
<g id="node2" class="node"><title>\\Battis\\BootstrapSmarty\\BootstrapSmarty_Exception</title>
<polygon fill="none" stroke="black" points="520.845,-122 339.791,-122 339.791,-86 520.845,-86 520.845,-122"/>
<text text-anchor="middle" x="430.318" y="-100.7" font-family="Courier,monospace" font-size="11.00">BootstrapSmarty_Exception</text>
</g>
<!-- \\Battis\\BootstrapSmarty\\Exception -->
<g id="node5" class="node"><title>\\Battis\\BootstrapSmarty\\Exception</title>
<ellipse fill="none" stroke="black" cx="133.902" cy="-104" rx="133.805" ry="18"/>
<text text-anchor="middle" x="133.902" y="-99.8" font-family="Times,serif" font-size="14.00" fill="gray">\Battis\BootstrapSmarty\Exception</text>
</g>
<!-- \\Battis\\BootstrapSmarty\\BootstrapSmarty_Exception&#45;&gt;\\Battis\\BootstrapSmarty\\Exception -->
<g id="edge2" class="edge"><title>\\Battis\\BootstrapSmarty\\BootstrapSmarty_Exception&#45;&gt;\\Battis\\BootstrapSmarty\\Exception</title>
<path fill="none" stroke="black" d="M339.785,-104C320.303,-104 299.22,-104 278.242,-104"/>
<polygon fill="none" stroke="black" points="277.96,-100.5 267.96,-104 277.96,-107.5 277.96,-100.5"/>
</g>
<!-- \\Battis\\BootstrapSmarty\\NotificationMessage -->
<g id="node3" class="node"><title>\\Battis\\BootstrapSmarty\\NotificationMessage</title>
<polygon fill="none" stroke="black" points="501.239,-68 359.397,-68 359.397,-32 501.239,-32 501.239,-68"/>
<text text-anchor="middle" x="430.318" y="-46.7" font-family="Courier,monospace" font-size="11.00">NotificationMessage</text>
</g>
</g>
</svg>
